# Blender v2.90.0 OBJ File: 'streets.blend'
# www.blender.org
o Straight_Plane.003
v -2.500000 0.000000 2.500000
v 2.500000 0.000000 2.500000
v -2.500000 0.050000 1.250000
v 2.500000 0.050000 1.250000
v -2.500000 0.150000 2.500000
v 2.500000 0.150000 2.500000
v -2.500000 0.150000 1.250000
v 2.500000 0.150000 1.250000
v -2.500000 0.050000 1.150000
v 2.500000 0.050000 1.150000
v 2.500000 0.050000 0.050000
v 1.875000 0.050000 0.050000
v -0.625000 0.050000 0.050000
v -2.500000 0.050000 0.050000
v 0.625000 0.050000 0.050000
v -1.875000 0.050000 0.050000
v -2.500000 0.000000 -2.500000
v 2.500000 0.000000 -2.500000
v -2.500000 0.050000 -1.250000
v 2.500000 0.050000 -1.250000
v -2.500000 0.150000 -2.500000
v 2.500000 0.150000 -2.500000
v -2.500000 0.150000 -1.250000
v 2.500000 0.150000 -1.250000
v -2.500000 0.050000 -1.150000
v 2.500000 0.050000 -1.150000
v 1.875000 0.050000 -0.050000
v 0.625000 0.050000 -0.050000
v -1.875000 0.050000 -0.050000
v -2.500000 0.050000 -0.050000
v 2.500000 0.050000 -0.050000
v -0.625000 0.050000 -0.050000
v -2.500000 0.050000 0.000000
v 2.500000 0.050000 0.000000
v 1.875000 0.050000 0.000000
v 0.625000 0.050000 0.000000
v -0.625000 0.050000 0.000000
v -1.875000 0.050000 0.000000
vt 0.144044 0.688588
vt 0.768379 0.676101
vt 0.768379 0.688589
vt 0.263846 0.936710
vt 0.888193 0.780623
vt 0.888193 0.936710
vt 0.888193 0.761892
vt 0.263845 0.780623
vt 0.263845 0.761893
vt 0.263846 0.949197
vt 0.888193 0.949198
vt 0.727221 0.316732
vt 0.727221 0.454089
vt 0.649178 0.316732
vt 0.848615 0.410473
vt 0.842372 0.254385
vt 0.848615 0.254385
vt 0.332421 0.017603
vt 0.488509 0.011360
vt 0.488509 0.017603
vt 0.332421 0.043272
vt 0.410464 0.037028
vt 0.410464 0.043272
vt 0.768377 0.675753
vt 0.144044 0.663266
vt 0.768377 0.663266
vt 0.168142 0.792494
vt 0.792490 0.948581
vt 0.168142 0.948581
vt 0.792490 0.792494
vt 0.168142 0.773764
vt 0.792490 0.773764
vt 0.792490 0.961069
vt 0.168142 0.961068
vt 0.337004 0.316385
vt 0.180917 0.316385
vt 0.102874 0.179029
vt 0.332421 0.030437
vt 0.410464 0.024194
vt 0.410464 0.030437
vt 0.685936 0.260629
vt 0.842024 0.254385
vt 0.842024 0.260628
vt 0.144044 0.676101
vt 0.102874 0.454089
vt 0.102874 0.316732
vt 0.180917 0.316732
vt 0.337004 0.316732
vt 0.493091 0.316732
vt 0.854858 0.254385
vt 0.854858 0.410473
vt 0.842372 0.410473
vt 0.488509 0.023847
vt 0.332421 0.023847
vt 0.332421 0.011360
vt 0.410464 0.049515
vt 0.332421 0.049515
vt 0.332421 0.037028
vt 0.144044 0.675754
vt 0.102874 0.316385
vt 0.727221 0.179029
vt 0.493091 0.316385
vt 0.727221 0.316385
vt 0.649178 0.316385
vt 0.410464 0.036681
vt 0.332421 0.036681
vt 0.332421 0.024194
vt 0.842024 0.266872
vt 0.685936 0.266872
vt 0.685936 0.254385
vn 0.0000 1.0000 0.0000
vn 0.0000 0.0000 1.0000
vn 0.0000 0.0000 -1.0000
s off
f 9/1/1 4/2/1 10/3/1
f 7/4/1 6/5/1 8/6/1
f 2/7/2 5/8/2 1/9/2
f 3/10/3 8/6/3 4/11/3
f 14/12/1 9/13/1 16/14/1
f 35/15/1 28/16/1 36/17/1
f 36/18/1 32/19/1 37/20/1
f 34/21/1 27/22/1 35/23/1
f 20/24/1 25/25/1 26/26/1
f 22/27/1 23/28/1 24/29/1
f 21/30/3 18/31/3 17/32/3
f 24/29/2 19/33/2 20/34/2
f 28/35/1 27/36/1 26/37/1
f 38/38/1 30/39/1 33/40/1
f 37/41/1 29/42/1 38/43/1
f 9/1/1 3/44/1 4/2/1
f 7/4/1 5/8/1 6/5/1
f 2/7/2 6/5/2 5/8/2
f 3/10/3 7/4/3 8/6/3
f 10/45/1 11/46/1 12/47/1
f 15/48/1 13/49/1 10/45/1
f 13/49/1 16/14/1 9/13/1
f 10/45/1 13/49/1 9/13/1
f 10/45/1 12/47/1 15/48/1
f 36/17/1 15/50/1 12/51/1
f 35/15/1 27/52/1 28/16/1
f 36/17/1 12/51/1 35/15/1
f 37/20/1 13/53/1 15/54/1
f 36/18/1 28/55/1 32/19/1
f 37/20/1 15/54/1 36/18/1
f 35/23/1 12/56/1 11/57/1
f 34/21/1 31/58/1 27/22/1
f 35/23/1 11/57/1 34/21/1
f 20/24/1 19/59/1 25/25/1
f 22/27/1 21/30/1 23/28/1
f 21/30/3 22/27/3 18/31/3
f 24/29/2 23/28/2 19/33/2
f 27/36/1 31/60/1 26/37/1
f 26/37/1 25/61/1 32/62/1
f 25/61/1 30/63/1 29/64/1
f 29/64/1 32/62/1 25/61/1
f 32/62/1 28/35/1 26/37/1
f 33/40/1 14/65/1 16/66/1
f 38/38/1 29/67/1 30/39/1
f 33/40/1 16/66/1 38/38/1
f 38/43/1 16/68/1 13/69/1
f 37/41/1 32/70/1 29/42/1
f 38/43/1 13/69/1 37/41/1
