# Blender v2.90.0 OBJ File: 'street5m.blend'
# www.blender.org
o Plane
v 0.000000 0.000000 0.000000
v 5.000000 0.000000 0.000000
v 0.000000 0.000000 -5.000000
v 5.000000 0.000000 -5.000000
v 0.000000 0.050000 0.000000
v 5.000000 0.050000 0.000000
v 0.000000 0.050000 -5.000000
v 5.000000 0.050000 -5.000000
v 0.000000 0.050000 -4.166667
v 0.000000 0.050000 -0.833333
v 5.000000 0.050000 -0.833333
v 5.000000 0.050000 -4.166667
v 0.000000 0.130000 -0.833333
v 0.000000 0.130000 0.000000
v 5.000000 0.130000 0.000000
v 5.000000 0.130000 -4.166667
v 5.000000 0.130000 -5.000000
v 0.000000 0.130000 -5.000000
v 0.000000 0.130000 -4.166667
v 5.000000 0.130000 -0.833333
vt 0.905055 0.984111
vt 0.905146 0.999905
vt 0.000209 0.999801
vt 0.905146 0.198406
vt 0.000140 0.801594
vt 0.000209 0.198303
vt 0.905097 0.817493
vt 0.000143 0.968212
vt 0.000161 0.817389
vt 0.905143 0.031788
vt 0.000189 0.182507
vt 0.000206 0.031685
vt 0.905077 0.801697
vt 0.905123 0.015992
vt 0.000186 0.015889
vt 0.905126 0.182611
vt 0.000119 0.984007
vt 0.905080 0.968315
vt 0.000095 0.000095
vt 0.905032 0.000198
vn 0.0000 0.0000 -1.0000
vn 0.0000 1.0000 0.0000
vn 0.0000 0.0000 1.0000
s off
f 8/1/1 4/2/1 3/3/1
f 11/4/2 9/5/2 10/6/2
f 16/7/2 18/8/2 19/9/2
f 15/10/2 13/11/2 14/12/2
f 12/13/3 19/9/3 9/5/3
f 6/14/3 14/12/3 5/15/3
f 10/6/1 20/16/1 11/4/1
f 3/3/1 7/17/1 8/1/1
f 7/17/1 18/8/1 8/1/1
f 18/8/1 17/18/1 8/1/1
f 11/4/2 12/13/2 9/5/2
f 16/7/2 17/18/2 18/8/2
f 15/10/2 20/16/2 13/11/2
f 12/13/3 16/7/3 19/9/3
f 5/15/3 1/19/3 2/20/3
f 6/14/3 15/10/3 14/12/3
f 5/15/3 2/20/3 6/14/3
f 10/6/1 13/11/1 20/16/1
