# Blender v2.90.0 OBJ File: 'streets.blend'
# www.blender.org
o Crossing_Circle.001
v -2.500000 0.050000 1.250000
v -1.250000 0.050000 2.499999
v -1.274019 0.050000 2.256136
v -1.345151 0.050000 2.021644
v -1.460664 0.050000 1.805536
v -1.616118 0.050000 1.616115
v -1.805539 0.050000 1.460662
v -2.021647 0.050000 1.345150
v -2.256139 0.050000 1.274018
v -2.500000 0.150000 1.250000
v -1.250000 0.150000 2.499999
v -1.274019 0.150000 2.256136
v -1.345151 0.150000 2.021644
v -1.460664 0.150000 1.805536
v -1.616118 0.150000 1.616115
v -1.805539 0.150000 1.460662
v -2.021647 0.150000 1.345150
v -2.256139 0.150000 1.274018
v -2.500000 0.150000 2.500000
v -2.500000 0.050000 1.150000
v -1.150000 0.050000 2.499999
v -1.175940 0.050000 2.236627
v -1.252763 0.050000 1.983376
v -1.377517 0.050000 1.749979
v -1.545407 0.050000 1.545405
v -1.749982 0.050000 1.377515
v -1.983379 0.050000 1.252762
v -2.399990 0.050000 1.159850
v -2.236630 0.050000 1.175939
v -1.159871 0.050000 2.399772
v 2.500000 0.050000 1.250000
v 1.250000 0.050000 2.499999
v 1.274019 0.050000 2.256136
v 1.345151 0.050000 2.021644
v 1.460664 0.050000 1.805536
v 1.616117 0.050000 1.616115
v 1.805539 0.050000 1.460662
v 2.021647 0.050000 1.345150
v 2.256139 0.050000 1.274018
v 2.500000 0.150000 1.250000
v 1.250000 0.150000 2.499999
v 1.274019 0.150000 2.256136
v 1.345151 0.150000 2.021644
v 1.460664 0.150000 1.805536
v 1.616117 0.150000 1.616115
v 1.805539 0.150000 1.460662
v 2.021647 0.150000 1.345150
v 2.256139 0.150000 1.274018
v 2.500000 0.150000 2.500000
v 2.500000 0.050000 1.150000
v 1.150000 0.050000 2.499999
v 1.175940 0.050000 2.236627
v 1.252763 0.050000 1.983376
v 1.377517 0.050000 1.749979
v 1.545407 0.050000 1.545405
v 1.749982 0.050000 1.377515
v 1.983379 0.050000 1.252762
v -0.050000 0.050000 2.499999
v 2.399990 0.050000 1.159850
v 2.236630 0.050000 1.175939
v 1.159872 0.050000 2.399772
v -0.050000 0.050000 2.399999
v -2.500000 0.050000 -1.250000
v -1.250000 0.050000 -2.499999
v -1.274019 0.050000 -2.256136
v -1.345151 0.050000 -2.021645
v -1.460664 0.050000 -1.805536
v -1.616118 0.050000 -1.616116
v -1.805539 0.050000 -1.460662
v -2.021647 0.050000 -1.345150
v -2.256139 0.050000 -1.274018
v -2.500000 0.150000 -1.250000
v -1.250000 0.150000 -2.499999
v -1.274019 0.150000 -2.256136
v -1.345151 0.150000 -2.021645
v -1.460664 0.150000 -1.805536
v -1.616118 0.150000 -1.616116
v -1.805539 0.150000 -1.460662
v -2.021647 0.150000 -1.345150
v -2.256139 0.150000 -1.274018
v -2.500000 0.150000 -2.500000
v -2.500000 0.050000 -1.150000
v -1.150000 0.050000 -2.499999
v -1.175940 0.050000 -2.236627
v -1.252763 0.050000 -1.983376
v -1.377517 0.050000 -1.749979
v -1.545407 0.050000 -1.545404
v -1.749982 0.050000 -1.377515
v -1.983379 0.050000 -1.252762
v -2.500000 0.050000 -0.050000
v -2.399990 0.050000 -1.159850
v -2.400000 0.050000 -0.050000
v -2.236630 0.050000 -1.175940
v -1.159871 0.050000 -2.399772
v 2.500000 0.050000 -1.250000
v 1.250000 0.050000 -2.499999
v 1.274019 0.050000 -2.256136
v 1.345151 0.050000 -2.021645
v 1.460664 0.050000 -1.805536
v 1.616117 0.050000 -1.616116
v 1.805539 0.050000 -1.460662
v 2.021647 0.050000 -1.345150
v 2.256139 0.050000 -1.274018
v 2.500000 0.150000 -1.250000
v 1.250000 0.150000 -2.499999
v 1.274019 0.150000 -2.256136
v 1.345151 0.150000 -2.021645
v 1.460664 0.150000 -1.805536
v 1.616117 0.150000 -1.616116
v 1.805539 0.150000 -1.460662
v 2.021647 0.150000 -1.345150
v 2.256139 0.150000 -1.274018
v 2.500000 0.150000 -2.500000
v 2.500000 0.050000 -1.150000
v 1.150000 0.050000 -2.499999
v 1.175940 0.050000 -2.236627
v 1.252763 0.050000 -1.983376
v 1.377517 0.050000 -1.749979
v 1.545407 0.050000 -1.545404
v 1.749982 0.050000 -1.377515
v 1.983379 0.050000 -1.252762
v 0.000000 0.050000 0.000000
v 2.500000 0.050000 0.050000
v 2.399990 0.050000 -1.159850
v 2.400000 0.050000 0.050000
v 2.236630 0.050000 -1.175940
v 0.050000 0.050000 -2.499999
v 1.159872 0.050000 -2.399772
v 0.050000 0.050000 -2.399999
vt 0.665025 0.832567
vt 0.693988 0.863817
vt 0.679289 0.870912
vt 0.699922 0.906140
vt 0.737750 0.925063
vt 0.726665 0.936887
vt 0.758610 0.961984
vt 0.800471 0.965796
vt 0.794425 0.980611
vt 0.832395 0.992623
vt 0.874071 0.983934
vt 0.871161 0.999754
vt 0.655984 0.792414
vt 0.680822 0.827800
vt 0.713055 0.896561
vt 0.767264 0.948367
vt 0.836123 0.977299
vt 0.874071 0.783920
vt 0.672725 0.788848
vt 0.431576 0.661671
vt 0.402918 0.664949
vt 0.432699 0.640509
vt 0.374959 0.697635
vt 0.411653 0.678021
vt 0.335143 0.709713
vt 0.368942 0.683110
vt 0.293736 0.713791
vt 0.332076 0.694293
vt 0.252330 0.709713
vt 0.293736 0.698069
vt 0.212514 0.697635
vt 0.255397 0.694293
vt 0.175820 0.678021
vt 0.218531 0.683110
vt 0.155870 0.661649
vt 0.154774 0.640509
vt 0.184554 0.664949
vt 0.422835 0.534110
vt 0.273720 0.337700
vt 0.417076 0.561327
vt 0.433793 0.508539
vt 0.449529 0.485598
vt 0.469439 0.466167
vt 0.492757 0.450993
vt 0.518586 0.440660
vt 0.823386 0.023176
vt 0.642586 0.038898
vt 0.642586 0.023176
vt 0.525077 0.316026
vt 0.535550 0.437500
vt 0.416738 0.589145
vt 0.295393 0.589057
vt 0.296296 0.599530
vt 0.416867 0.578559
vt 0.038250 0.919857
vt 0.009288 0.951107
vt 0.023551 0.912762
vt 0.082012 0.858611
vt 0.044184 0.877534
vt 0.070928 0.846788
vt 0.144734 0.817878
vt 0.102873 0.821690
vt 0.138688 0.803064
vt 0.218333 0.799741
vt 0.176657 0.791052
vt 0.215423 0.783920
vt 0.025085 0.955874
vt 0.000246 0.991260
vt 0.057317 0.887113
vt 0.111526 0.835308
vt 0.180385 0.806376
vt 0.218333 0.999754
vt 0.016987 0.994826
vt 0.583586 0.682175
vt 0.574852 0.695247
vt 0.554928 0.678896
vt 0.611546 0.714860
vt 0.617562 0.700335
vt 0.651362 0.726938
vt 0.692768 0.715294
vt 0.692768 0.731016
vt 0.731108 0.711518
vt 0.734175 0.726938
vt 0.767974 0.700335
vt 0.773991 0.714860
vt 0.801950 0.682174
vt 0.810685 0.695247
vt 0.831730 0.657735
vt 0.842847 0.668851
vt 0.830634 0.678874
vt 0.160426 0.556737
vt 0.170759 0.582566
vt 0.145253 0.533419
vt 0.125822 0.513510
vt 0.102880 0.497774
vt 0.077309 0.486816
vt 0.050092 0.481057
vt 0.022363 0.359374
vt 0.022274 0.480719
vt 0.011889 0.360277
vt 0.032838 0.480847
vt 0.276902 0.023142
vt 0.457699 0.038899
vt 0.276899 0.038864
vt 0.173915 0.599508
vt 0.256830 0.919857
vt 0.227867 0.951107
vt 0.242131 0.912762
vt 0.300591 0.858611
vt 0.262763 0.877534
vt 0.289507 0.846788
vt 0.363313 0.817878
vt 0.321452 0.821690
vt 0.357267 0.803064
vt 0.436913 0.799741
vt 0.395236 0.791052
vt 0.434003 0.783920
vt 0.243664 0.955874
vt 0.218825 0.991260
vt 0.275896 0.887113
vt 0.330105 0.835308
vt 0.398964 0.806376
vt 0.436913 0.999754
vt 0.235566 0.994826
vt 0.282936 0.682175
vt 0.274201 0.695247
vt 0.254278 0.678896
vt 0.316912 0.700335
vt 0.310896 0.714860
vt 0.350711 0.726938
vt 0.353778 0.711518
vt 0.392118 0.731016
vt 0.430458 0.711518
vt 0.433525 0.726938
vt 0.473340 0.714860
vt 0.467324 0.700335
vt 0.510035 0.695246
vt 0.531080 0.657735
vt 0.542197 0.668851
vt 0.529984 0.678874
vt 0.387013 0.118664
vt 0.376680 0.092834
vt 0.402186 0.141981
vt 0.421617 0.161891
vt 0.444559 0.177627
vt 0.470130 0.188584
vt 0.497347 0.194343
vt 0.525165 0.194681
vt 0.535550 0.315123
vt 0.514601 0.194553
vt 0.094055 0.023142
vt 0.274852 0.038899
vt 0.094052 0.038864
vt 0.373524 0.075892
vt 0.252046 0.086343
vt 0.446446 0.832567
vt 0.475409 0.863817
vt 0.460710 0.870912
vt 0.481343 0.906140
vt 0.519171 0.925064
vt 0.508086 0.936887
vt 0.540031 0.961984
vt 0.581892 0.965796
vt 0.575846 0.980611
vt 0.613816 0.992623
vt 0.655492 0.983934
vt 0.652582 0.999754
vt 0.437405 0.792414
vt 0.462243 0.827800
vt 0.494475 0.896561
vt 0.548685 0.948367
vt 0.617544 0.977299
vt 0.655492 0.783920
vt 0.454146 0.788848
vt 0.732226 0.661671
vt 0.703568 0.664949
vt 0.733349 0.640509
vt 0.712303 0.678021
vt 0.669592 0.683110
vt 0.635793 0.709713
vt 0.675609 0.697635
vt 0.594386 0.698069
vt 0.632726 0.694293
vt 0.594386 0.713791
vt 0.556047 0.694293
vt 0.552980 0.709713
vt 0.519181 0.683110
vt 0.513164 0.697635
vt 0.485204 0.664949
vt 0.456520 0.661649
vt 0.455424 0.640509
vt 0.124603 0.141290
vt 0.130362 0.114073
vt 0.113645 0.166861
vt 0.097909 0.189803
vt 0.078000 0.209234
vt 0.054683 0.224407
vt 0.028853 0.234740
vt 0.640546 0.023176
vt 0.459746 0.038898
vt 0.459746 0.023176
vt 0.011889 0.237900
vt 0.130700 0.086255
vt 0.251143 0.075870
vt 0.130572 0.096841
vt 0.443816 0.651626
vt 0.143657 0.651626
vt 0.824935 0.038899
vt 0.542689 0.668851
vt 0.553806 0.657735
vt 0.654429 0.711518
vt 0.459254 0.023142
vt 0.242039 0.668851
vt 0.253156 0.657735
vt 0.392118 0.715294
vt 0.501300 0.682174
vt 0.276407 0.023142
vt 0.744466 0.651626
vt 0.476470 0.678021
vt 0.444307 0.651626
vt 0.642094 0.038899
vn 0.2903 0.0000 -0.9569
vn 0.6344 0.0000 -0.7730
vn 0.8819 0.0000 -0.4714
vn 0.9952 0.0000 -0.0980
vn 0.0980 0.0000 -0.9952
vn 0.4714 0.0000 -0.8819
vn 0.7730 0.0000 -0.6344
vn 0.9569 0.0000 -0.2903
vn 0.0000 1.0000 0.0000
vn 0.0000 -1.0000 0.0000
vn -0.2903 0.0000 -0.9569
vn -0.6344 0.0000 -0.7730
vn -0.8819 0.0000 -0.4714
vn -0.9952 0.0000 -0.0980
vn -0.0980 0.0000 -0.9952
vn -0.4714 0.0000 -0.8819
vn -0.7730 0.0000 -0.6344
vn -0.9569 0.0000 -0.2903
vn 0.2903 0.0000 0.9569
vn 0.6344 0.0000 0.7730
vn 0.8819 0.0000 0.4714
vn 0.9952 0.0000 0.0980
vn 0.0980 0.0000 0.9952
vn 0.4714 0.0000 0.8819
vn 0.7730 0.0000 0.6344
vn 0.9569 0.0000 0.2903
vn -0.2903 0.0000 0.9569
vn -0.6344 0.0000 0.7730
vn -0.8819 0.0000 0.4714
vn -0.9952 0.0000 0.0980
vn -0.0980 0.0000 0.9952
vn -0.4714 0.0000 0.8819
vn -0.7730 0.0000 0.6344
vn -0.9569 0.0000 0.2903
s off
f 9/1/1 17/2/1 8/3/1
f 7/4/2 15/5/2 6/6/2
f 5/7/3 13/8/3 4/9/3
f 3/10/4 11/11/4 2/12/4
f 1/13/5 18/14/5 9/1/5
f 8/3/6 16/15/6 7/4/6
f 6/6/7 14/16/7 5/7/7
f 4/9/8 12/17/8 3/10/8
f 11/11/9 12/17/9 19/18/9
f 12/17/9 13/8/9 19/18/9
f 13/8/9 14/16/9 19/18/9
f 14/16/9 15/5/9 19/18/9
f 15/5/9 16/15/9 19/18/9
f 16/15/9 17/2/9 19/18/9
f 17/2/9 18/14/9 19/18/9
f 18/14/9 10/19/9 19/18/9
f 30/20/9 3/21/9 2/22/9
f 23/23/9 3/21/9 22/24/9
f 24/25/9 4/26/9 23/23/9
f 25/27/9 5/28/9 24/25/9
f 26/29/9 6/30/9 25/27/9
f 27/31/9 7/32/9 26/29/9
f 29/33/9 8/34/9 27/31/9
f 28/35/9 1/36/9 9/37/9
f 23/38/10 122/39/10 22/40/10
f 24/41/10 122/39/10 23/38/10
f 25/42/10 122/39/10 24/41/10
f 26/43/10 122/39/10 25/42/10
f 27/44/10 122/39/10 26/43/10
f 29/45/10 122/39/10 27/44/10
f 20/46/9 92/47/9 90/48/9
f 92/49/9 28/50/9 29/45/9
f 29/45/9 122/39/9 92/49/9
f 21/51/10 62/52/10 58/53/10
f 30/54/10 22/40/10 62/52/10
f 22/40/10 122/39/10 62/52/10
f 47/55/11 39/56/11 38/57/11
f 45/58/12 37/59/12 36/60/12
f 43/61/13 35/62/13 34/63/13
f 41/64/14 33/65/14 32/66/14
f 48/67/15 31/68/15 39/56/15
f 46/69/16 38/57/16 37/59/16
f 44/70/17 36/60/17 35/62/17
f 42/71/18 34/63/18 33/65/18
f 41/64/9 49/72/9 42/71/9
f 42/71/9 49/72/9 43/61/9
f 43/61/9 49/72/9 44/70/9
f 44/70/9 49/72/9 45/58/9
f 45/58/9 49/72/9 46/69/9
f 46/69/9 49/72/9 47/55/9
f 47/55/9 49/72/9 48/67/9
f 48/67/9 49/72/9 40/73/9
f 33/74/9 52/75/9 61/76/9
f 33/74/9 53/77/9 52/75/9
f 34/78/9 54/79/9 53/77/9
f 54/79/9 36/80/9 55/81/9
f 55/81/9 37/82/9 56/83/9
f 56/83/9 38/84/9 57/85/9
f 57/85/9 39/86/9 60/87/9
f 31/88/9 50/89/9 59/90/9
f 53/91/10 52/92/10 122/39/10
f 54/93/10 53/91/10 122/39/10
f 55/94/10 54/93/10 122/39/10
f 56/95/10 55/94/10 122/39/10
f 57/96/10 56/95/10 122/39/10
f 60/97/10 57/96/10 122/39/10
f 125/98/9 50/99/9 123/100/9
f 125/98/9 60/97/9 59/101/9
f 60/97/9 125/98/9 122/39/9
f 62/102/10 51/103/10 58/104/10
f 61/105/10 62/52/10 52/92/10
f 52/92/10 62/52/10 122/39/10
f 79/106/19 71/107/19 70/108/19
f 77/109/20 69/110/20 68/111/20
f 75/112/21 67/113/21 66/114/21
f 73/115/22 65/116/22 64/117/22
f 80/118/23 63/119/23 71/107/23
f 78/120/24 70/108/24 69/110/24
f 76/121/25 68/111/25 67/113/25
f 74/122/26 66/114/26 65/116/26
f 73/115/9 81/123/9 74/122/9
f 74/122/9 81/123/9 75/112/9
f 75/112/9 81/123/9 76/121/9
f 76/121/9 81/123/9 77/109/9
f 77/109/9 81/123/9 78/120/9
f 78/120/9 81/123/9 79/106/9
f 79/106/9 81/123/9 80/118/9
f 80/118/9 81/123/9 72/124/9
f 65/125/9 84/126/9 94/127/9
f 84/126/9 66/128/9 85/129/9
f 66/128/9 86/130/9 85/129/9
f 67/131/9 87/132/9 86/130/9
f 87/132/9 69/133/9 88/134/9
f 69/133/9 89/135/9 88/134/9
f 70/136/9 93/137/9 89/135/9
f 63/138/9 82/139/9 91/140/9
f 85/141/10 84/142/10 122/39/10
f 86/143/10 85/141/10 122/39/10
f 87/144/10 86/143/10 122/39/10
f 88/145/10 87/144/10 122/39/10
f 89/146/10 88/145/10 122/39/10
f 93/147/10 89/146/10 122/39/10
f 92/49/9 82/148/9 90/149/9
f 92/49/9 93/147/9 91/150/9
f 93/147/9 92/49/9 122/39/9
f 129/151/10 83/152/10 127/153/10
f 94/154/10 129/155/10 84/142/10
f 84/142/10 129/155/10 122/39/10
f 103/156/27 111/157/27 102/158/27
f 101/159/28 109/160/28 100/161/28
f 99/162/29 107/163/29 98/164/29
f 97/165/30 105/166/30 96/167/30
f 95/168/31 112/169/31 103/156/31
f 102/158/32 110/170/32 101/159/32
f 100/161/33 108/171/33 99/162/33
f 98/164/34 106/172/34 97/165/34
f 105/166/9 106/172/9 113/173/9
f 106/172/9 107/163/9 113/173/9
f 107/163/9 108/171/9 113/173/9
f 108/171/9 109/160/9 113/173/9
f 109/160/9 110/170/9 113/173/9
f 110/170/9 111/157/9 113/173/9
f 111/157/9 112/169/9 113/173/9
f 112/169/9 104/174/9 113/173/9
f 128/175/9 97/176/9 96/177/9
f 116/178/9 98/179/9 97/176/9
f 118/180/9 98/179/9 117/181/9
f 118/180/9 100/182/9 99/183/9
f 119/184/9 101/185/9 100/182/9
f 120/186/9 102/187/9 101/185/9
f 121/188/9 103/189/9 102/187/9
f 124/190/9 95/191/9 103/189/9
f 117/192/10 122/39/10 116/193/10
f 118/194/10 122/39/10 117/192/10
f 119/195/10 122/39/10 118/194/10
f 120/196/10 122/39/10 119/195/10
f 121/197/10 122/39/10 120/196/10
f 126/198/10 122/39/10 121/197/10
f 114/199/9 125/200/9 123/201/9
f 125/98/9 124/202/9 126/198/9
f 126/198/9 122/39/9 125/98/9
f 115/203/10 129/155/10 127/204/10
f 128/205/10 116/193/10 129/155/10
f 116/193/10 122/39/10 129/155/10
f 9/1/1 18/14/1 17/2/1
f 7/4/2 16/15/2 15/5/2
f 5/7/3 14/16/3 13/8/3
f 3/10/4 12/17/4 11/11/4
f 1/13/5 10/19/5 18/14/5
f 8/3/6 17/2/6 16/15/6
f 6/6/7 15/5/7 14/16/7
f 4/9/8 13/8/8 12/17/8
f 2/22/9 21/206/9 30/20/9
f 30/20/9 22/24/9 3/21/9
f 23/23/9 4/26/9 3/21/9
f 24/25/9 5/28/9 4/26/9
f 25/27/9 6/30/9 5/28/9
f 26/29/9 7/32/9 6/30/9
f 27/31/9 8/34/9 7/32/9
f 29/33/9 9/37/9 8/34/9
f 9/37/9 29/33/9 28/35/9
f 28/35/9 20/207/9 1/36/9
f 20/46/9 28/208/9 92/47/9
f 21/51/10 30/54/10 62/52/10
f 47/55/11 48/67/11 39/56/11
f 45/58/12 46/69/12 37/59/12
f 43/61/13 44/70/13 35/62/13
f 41/64/14 42/71/14 33/65/14
f 48/67/15 40/73/15 31/68/15
f 46/69/16 47/55/16 38/57/16
f 44/70/17 45/58/17 36/60/17
f 42/71/18 43/61/18 34/63/18
f 61/76/9 51/209/9 32/210/9
f 32/210/9 33/74/9 61/76/9
f 33/74/9 34/78/9 53/77/9
f 34/78/9 35/211/9 54/79/9
f 54/79/9 35/211/9 36/80/9
f 55/81/9 36/80/9 37/82/9
f 56/83/9 37/82/9 38/84/9
f 57/85/9 38/84/9 39/86/9
f 59/90/9 60/87/9 39/86/9
f 39/86/9 31/88/9 59/90/9
f 125/98/9 59/101/9 50/99/9
f 62/102/10 61/212/10 51/103/10
f 79/106/19 80/118/19 71/107/19
f 77/109/20 78/120/20 69/110/20
f 75/112/21 76/121/21 67/113/21
f 73/115/22 74/122/22 65/116/22
f 80/118/23 72/124/23 63/119/23
f 78/120/24 79/106/24 70/108/24
f 76/121/25 77/109/25 68/111/25
f 74/122/26 75/112/26 66/114/26
f 94/127/9 83/213/9 64/214/9
f 64/214/9 65/125/9 94/127/9
f 84/126/9 65/125/9 66/128/9
f 66/128/9 67/131/9 86/130/9
f 67/131/9 68/215/9 87/132/9
f 87/132/9 68/215/9 69/133/9
f 69/133/9 70/136/9 89/135/9
f 70/136/9 71/216/9 93/137/9
f 91/140/9 93/137/9 71/216/9
f 71/216/9 63/138/9 91/140/9
f 92/49/9 91/150/9 82/148/9
f 129/151/10 94/217/10 83/152/10
f 103/156/27 112/169/27 111/157/27
f 101/159/28 110/170/28 109/160/28
f 99/162/29 108/171/29 107/163/29
f 97/165/30 106/172/30 105/166/30
f 95/168/31 104/174/31 112/169/31
f 102/158/32 111/157/32 110/170/32
f 100/161/33 109/160/33 108/171/33
f 98/164/34 107/163/34 106/172/34
f 96/177/9 115/218/9 128/175/9
f 128/175/9 116/178/9 97/176/9
f 116/178/9 117/181/9 98/179/9
f 118/180/9 99/183/9 98/179/9
f 118/180/9 119/184/9 100/182/9
f 119/184/9 120/186/9 101/185/9
f 120/186/9 121/188/9 102/187/9
f 121/188/9 126/219/9 103/189/9
f 103/189/9 126/219/9 124/190/9
f 124/190/9 114/220/9 95/191/9
f 114/199/9 124/221/9 125/200/9
f 115/203/10 128/205/10 129/155/10
