# Blender v2.90.0 OBJ File: 'streets.blend'
# www.blender.org
o TCrossing_Plane.004
v -1.345151 0.050000 2.021644
v -1.274019 0.050000 2.256136
v -2.500000 0.000000 -2.500000
v 2.500000 0.000000 -2.500000
v -2.500000 0.050000 -1.250000
v 2.500000 0.050000 -1.250000
v -2.500000 0.150000 2.500000
v 2.500000 0.150000 2.500000
v 2.500000 0.150000 -2.500000
v -2.500000 0.150000 -2.500000
v -1.250000 0.050000 2.499999
v 2.500000 0.150000 -1.250000
v -2.500000 0.150000 -1.250000
v -2.500000 0.050000 1.250000
v -2.500000 0.150000 1.250000
v -1.250000 0.150000 2.499999
v -1.274019 0.150000 2.256136
v -1.345151 0.150000 2.021644
v -1.460664 0.150000 1.805536
v -1.616118 0.150000 1.616115
v -1.805539 0.150000 1.460662
v -2.021647 0.150000 1.345150
v -2.256139 0.150000 1.274018
v 2.500000 0.150000 1.250000
v 2.256137 0.150000 1.274018
v 2.021646 0.150000 1.345151
v 1.805537 0.150000 1.460663
v 1.616117 0.150000 1.616117
v 1.460663 0.150000 1.805537
v 1.345150 0.150000 2.021646
v 1.274018 0.150000 2.256137
v 1.250000 0.150000 2.500000
v 1.250000 0.050000 2.500000
v 1.274018 0.050000 2.256137
v 1.345150 0.050000 2.021646
v 1.460663 0.050000 1.805537
v 1.616117 0.050000 1.616117
v 1.805537 0.050000 1.460663
v 2.021646 0.050000 1.345151
v 2.256137 0.050000 1.274018
v 2.500000 0.050000 1.250000
v -2.256139 0.050000 1.274018
v -2.021647 0.050000 1.345150
v -1.805539 0.050000 1.460662
v -1.616118 0.050000 1.616115
v -1.460664 0.050000 1.805536
v -2.500000 0.050000 -1.150000
v 2.500000 0.050000 -1.150000
v -2.500000 0.050000 1.150000
v 1.150000 0.050000 2.500000
v 1.175940 0.050000 2.236628
v 1.252763 0.050000 1.983377
v 1.377516 0.050000 1.749980
v 1.545406 0.050000 1.545406
v 1.749980 0.050000 1.377516
v 1.983377 0.050000 1.252763
v 2.236628 0.050000 1.175940
v 2.500000 0.050000 1.150000
v -1.150000 0.050000 2.499999
v -1.175940 0.050000 2.236627
v -1.252763 0.050000 1.983376
v -1.377517 0.050000 1.749979
v -1.545407 0.050000 1.545405
v -1.749982 0.050000 1.377515
v -1.983379 0.050000 1.252762
v -2.236630 0.050000 1.175939
v -2.400000 0.050000 1.159850
v -2.400000 0.050000 -1.150000
v -2.400000 0.050000 -0.050000
v -2.500000 0.050000 -0.050000
v 1.159852 0.050000 2.399975
v -1.159858 0.050000 2.399907
v 2.400000 0.050000 -1.150000
v 2.399963 0.050000 1.159853
v -0.050000 0.050000 2.500001
v -0.050003 0.050000 2.399942
v 2.502460 0.050000 0.049939
v 2.402441 0.050000 0.054866
v 0.000000 0.050000 -1.150000
v -0.000009 0.050000 0.002463
vt 0.000206 0.976736
vt 0.768802 0.784587
vt 0.768802 0.976736
vt 0.517885 0.879871
vt 0.484870 0.854793
vt 0.499242 0.847856
vt 0.486370 0.812640
vt 0.462084 0.778041
vt 0.478452 0.774555
vt 0.000206 0.999794
vt 0.768802 0.999793
vt 0.768802 0.769215
vt 0.000206 0.784587
vt 0.000206 0.769214
vt 0.675318 0.769737
vt 0.542030 0.907739
vt 0.570888 0.930524
vt 0.603356 0.947566
vt 0.638214 0.958812
vt 0.675318 0.965299
vt 0.864777 0.957364
vt 0.901881 0.768288
vt 0.901881 0.963851
vt 0.829919 0.946117
vt 0.797450 0.929075
vt 0.768593 0.906291
vt 0.744447 0.878422
vt 0.725805 0.846407
vt 0.712932 0.811192
vt 0.705015 0.773106
vt 0.531192 0.919299
vt 0.597445 0.962050
vt 0.470924 0.817301
vt 0.505044 0.889237
vt 0.562427 0.943838
vt 0.634569 0.973795
vt 0.824007 0.960602
vt 0.697487 0.815853
vt 0.731607 0.887789
vt 0.788989 0.942390
vt 0.861132 0.972347
vt 0.688646 0.776593
vt 0.711433 0.853345
vt 0.757755 0.917851
vt 0.105757 0.679301
vt 0.121129 0.663929
vt 0.490055 0.663929
vt 0.578885 0.653416
vt 0.550849 0.656635
vt 0.579967 0.632738
vt 0.523512 0.688593
vt 0.559389 0.669416
vt 0.484582 0.700402
vt 0.517629 0.674391
vt 0.444097 0.704390
vt 0.481583 0.685326
vt 0.403611 0.700402
vt 0.444097 0.689018
vt 0.364682 0.688593
vt 0.406610 0.685326
vt 0.328804 0.669416
vt 0.370564 0.674391
vt 0.309298 0.653407
vt 0.308227 0.632738
vt 0.337344 0.656635
vt 0.367955 0.672739
vt 0.339912 0.675963
vt 0.369029 0.652067
vt 0.312574 0.707921
vt 0.348452 0.688744
vt 0.270646 0.704654
vt 0.306692 0.693720
vt 0.273645 0.719730
vt 0.233160 0.708346
vt 0.233160 0.723718
vt 0.195673 0.704654
vt 0.153745 0.707921
vt 0.192674 0.719730
vt 0.117867 0.688744
vt 0.159627 0.693720
vt 0.098363 0.672738
vt 0.097290 0.652067
vt 0.126407 0.675963
vt 0.748637 0.073449
vt 0.763006 0.238688
vt 0.748637 0.238688
vt 0.565929 0.031638
vt 0.742705 0.016266
vt 0.744219 0.031638
vt 0.742707 0.032050
vt 0.565929 0.047431
vt 0.565929 0.032050
vt 0.044576 0.403926
vt 0.058947 0.239395
vt 0.044576 0.238687
vt 0.569029 0.597903
vt 0.403791 0.583526
vt 0.570446 0.583521
vt 0.742706 0.000480
vt 0.565929 0.015852
vt 0.565929 0.000480
vt 0.403791 0.239042
vt 0.237135 0.583531
vt 0.403790 0.073449
vt 0.058944 0.073449
vt 0.748637 0.405343
vt 0.725163 0.407655
vt 0.688774 0.418693
vt 0.655238 0.436618
vt 0.625843 0.460742
vt 0.601720 0.490136
vt 0.583794 0.523672
vt 0.572756 0.560061
vt 0.234823 0.560059
vt 0.223785 0.523670
vt 0.205860 0.490134
vt 0.181736 0.460740
vt 0.152342 0.436616
vt 0.058949 0.405341
vt 0.082418 0.407653
vt 0.118806 0.418691
vt 0.672473 0.980768
vt 0.899035 0.979319
vt 0.874356 0.663929
vt 0.874356 0.679301
vt 0.858984 0.663929
vt 0.105757 0.663929
vt 0.590836 0.643608
vt 0.297357 0.643608
vt 0.379899 0.662936
vt 0.086420 0.662936
vt 0.763006 0.073449
vt 0.565929 0.016266
vt 0.744221 0.047426
vt 0.403790 0.597903
vt 0.743463 0.015855
vn 0.0000 1.0000 0.0000
vn 0.4714 0.0000 -0.8819
vn 0.0980 0.0000 -0.9952
vn 0.0000 0.0000 -1.0000
vn 0.0000 0.0000 1.0000
vn 0.7730 0.0000 -0.6344
vn 0.9569 0.0000 -0.2903
vn 0.2903 0.0000 -0.9569
vn 0.6344 0.0000 -0.7730
vn 0.8819 0.0000 -0.4714
vn 0.9952 0.0000 -0.0980
vn -0.2903 0.0000 -0.9569
vn -0.9569 0.0000 -0.2903
vn -0.7730 0.0000 -0.6344
vn -0.4714 0.0000 -0.8819
vn -0.0980 0.0000 -0.9952
vn -0.9952 0.0000 -0.0980
vn -0.8819 0.0000 -0.4714
vn -0.6344 0.0000 -0.7730
vn 0.0000 -1.0000 0.0000
s off
f 10/1/1 12/2/1 9/3/1
f 21/4/2 43/5/2 22/6/2
f 23/7/3 14/8/3 15/9/3
f 3/10/4 9/3/4 4/11/4
f 6/12/5 13/13/5 5/14/5
f 15/9/1 7/15/1 23/7/1
f 22/6/1 23/7/1 7/15/1
f 21/4/1 22/6/1 7/15/1
f 20/16/1 21/4/1 7/15/1
f 19/17/1 20/16/1 7/15/1
f 18/18/1 19/17/1 7/15/1
f 17/19/1 18/18/1 7/15/1
f 16/20/1 17/19/1 7/15/1
f 25/21/1 8/22/1 24/23/1
f 25/21/1 26/24/1 8/22/1
f 26/24/1 27/25/1 8/22/1
f 27/25/1 28/26/1 8/22/1
f 28/26/1 29/27/1 8/22/1
f 29/27/1 30/28/1 8/22/1
f 30/28/1 31/29/1 8/22/1
f 31/29/1 32/30/1 8/22/1
f 19/17/6 45/31/6 20/16/6
f 17/19/7 1/32/7 18/18/7
f 22/6/8 42/33/8 23/7/8
f 20/16/9 44/34/9 21/4/9
f 18/18/10 46/35/10 19/17/10
f 16/20/11 2/36/11 17/19/11
f 25/21/12 39/37/12 26/24/12
f 30/28/13 34/38/13 31/29/13
f 28/26/14 36/39/14 29/27/14
f 26/24/15 38/40/15 27/25/15
f 24/23/16 40/41/16 25/21/16
f 31/29/17 33/42/17 32/30/17
f 29/27/18 35/43/18 30/28/18
f 27/25/19 37/44/19 28/26/19
f 5/45/1 68/46/1 79/47/1
f 72/48/1 2/49/1 11/50/1
f 61/51/1 2/49/1 60/52/1
f 62/53/1 1/54/1 61/51/1
f 63/55/1 46/56/1 62/53/1
f 64/57/1 45/58/1 63/55/1
f 65/59/1 44/60/1 64/57/1
f 66/61/1 43/62/1 65/59/1
f 67/63/1 14/64/1 42/65/1
f 74/66/1 40/67/1 41/68/1
f 56/69/1 40/67/1 57/70/1
f 56/69/1 38/71/1 39/72/1
f 55/73/1 37/74/1 38/71/1
f 54/75/1 36/76/1 37/74/1
f 52/77/1 36/76/1 53/78/1
f 51/79/1 35/80/1 52/77/1
f 71/81/1 33/82/1 34/83/1
f 68/84/1 70/85/1 69/86/1
f 69/87/1 49/88/1 67/89/1
f 50/90/1 76/91/1 75/92/1
f 58/93/20 78/94/20 77/95/20
f 59/96/1 76/97/1 72/98/1
f 77/99/20 73/100/20 48/101/20
f 72/98/1 76/97/1 80/102/1
f 76/97/1 71/103/1 80/102/1
f 79/104/1 68/84/1 80/102/1
f 69/86/1 80/102/1 68/84/1
f 73/105/1 79/104/1 80/102/1
f 78/94/20 80/102/20 73/105/20
f 67/106/1 66/107/1 69/86/1
f 69/86/1 66/107/1 80/102/1
f 66/107/1 65/108/1 80/102/1
f 64/109/1 80/102/1 65/108/1
f 63/110/1 80/102/1 64/109/1
f 62/111/1 80/102/1 63/110/1
f 61/112/1 80/102/1 62/111/1
f 60/113/1 80/102/1 61/112/1
f 72/98/1 80/102/1 60/113/1
f 51/114/1 80/102/1 71/103/1
f 52/115/1 80/102/1 51/114/1
f 53/116/1 80/102/1 52/115/1
f 54/117/1 80/102/1 53/116/1
f 55/118/1 80/102/1 54/117/1
f 74/119/1 78/94/1 57/120/1
f 78/94/20 57/120/20 80/102/20
f 57/120/1 80/102/1 56/121/1
f 56/121/1 80/102/1 55/118/1
f 10/1/1 13/13/1 12/2/1
f 21/4/2 44/34/2 43/5/2
f 23/7/3 42/33/3 14/8/3
f 3/10/4 10/1/4 9/3/4
f 6/12/5 12/2/5 13/13/5
f 19/17/6 46/35/6 45/31/6
f 17/19/7 2/36/7 1/32/7
f 22/6/8 43/5/8 42/33/8
f 20/16/9 45/31/9 44/34/9
f 18/18/10 1/32/10 46/35/10
f 16/20/11 11/122/11 2/36/11
f 25/21/12 40/41/12 39/37/12
f 30/28/13 35/43/13 34/38/13
f 28/26/14 37/44/14 36/39/14
f 26/24/15 39/37/15 38/40/15
f 24/23/16 41/123/16 40/41/16
f 31/29/17 34/38/17 33/42/17
f 29/27/18 36/39/18 35/43/18
f 27/25/19 38/40/19 37/44/19
f 48/124/1 6/125/1 73/126/1
f 6/125/1 5/45/1 79/47/1
f 73/126/1 6/125/1 79/47/1
f 5/45/1 47/127/1 68/46/1
f 11/50/1 59/128/1 72/48/1
f 72/48/1 60/52/1 2/49/1
f 61/51/1 1/54/1 2/49/1
f 62/53/1 46/56/1 1/54/1
f 63/55/1 45/58/1 46/56/1
f 64/57/1 44/60/1 45/58/1
f 65/59/1 43/62/1 44/60/1
f 66/61/1 42/65/1 43/62/1
f 42/65/1 66/61/1 67/63/1
f 67/63/1 49/129/1 14/64/1
f 41/68/1 58/130/1 74/66/1
f 74/66/1 57/70/1 40/67/1
f 56/69/1 39/72/1 40/67/1
f 56/69/1 55/73/1 38/71/1
f 55/73/1 54/75/1 37/74/1
f 54/75/1 53/78/1 36/76/1
f 52/77/1 35/80/1 36/76/1
f 51/79/1 34/83/1 35/80/1
f 34/83/1 51/79/1 71/81/1
f 71/81/1 50/131/1 33/82/1
f 68/84/1 47/132/1 70/85/1
f 69/87/1 70/133/1 49/88/1
f 50/90/1 71/134/1 76/91/1
f 58/93/20 74/119/20 78/94/20
f 59/96/1 75/135/1 76/97/1
f 77/99/20 78/136/20 73/100/20
