# Blender v2.90.0 OBJ File: 'streets.blend'
# www.blender.org
o Curve_Circle
v -2.500000 0.050000 1.000000
v -1.250000 0.050000 2.249999
v -1.274019 0.050000 2.006136
v -1.345151 0.050000 1.771644
v -1.460664 0.050000 1.555536
v -1.616118 0.050000 1.366115
v -1.805539 0.050000 1.210662
v -2.021647 0.050000 1.095150
v -2.256139 0.050000 1.024018
v -2.500000 0.150000 1.000000
v -1.250000 0.150000 2.249999
v -1.274019 0.150000 2.006136
v -1.345151 0.150000 1.771644
v -1.460664 0.150000 1.555536
v -1.616118 0.150000 1.366115
v -1.805539 0.150000 1.210662
v -2.021647 0.150000 1.095150
v -2.256139 0.150000 1.024018
v -2.500000 0.150000 2.250000
v -2.500000 0.150000 -1.500000
v -1.768417 0.050000 -1.427946
v -1.064942 0.050000 -1.214550
v -0.416616 0.050000 -0.868014
v 0.151647 0.050000 -0.401654
v 0.618009 0.050000 0.166608
v 0.964547 0.050000 0.814933
v 1.177944 0.050000 1.518407
v 1.250000 0.050000 2.249996
v -2.500000 0.050000 -1.500000
v 1.250000 0.150000 2.249996
v 1.177944 0.150000 1.518407
v 0.964547 0.150000 0.814933
v 0.618009 0.150000 0.166608
v 0.151647 0.150000 -0.401654
v -0.416616 0.150000 -0.868014
v -1.064942 0.150000 -1.214550
v -1.768417 0.150000 -1.427946
v -2.500000 0.150000 -2.750000
v -1.524556 0.000000 -2.653928
v -0.586590 0.000000 -2.369401
v 0.277846 0.000000 -1.907352
v 1.035529 0.000000 -1.285538
v 1.657345 0.000000 -0.527856
v 2.119395 0.000000 0.336578
v 2.403925 0.000000 1.274543
v 2.500000 0.000000 2.249995
v -2.500000 0.000000 -2.750000
v 2.500000 0.150000 2.249995
v 2.403925 0.150000 1.274543
v 2.119395 0.150000 0.336578
v 1.657345 0.150000 -0.527856
v 1.035529 0.150000 -1.285538
v 0.277846 0.150000 -1.907352
v -0.586590 0.150000 -2.369401
v -1.524556 0.150000 -2.653928
v -2.500000 0.050000 0.900000
v -1.150000 0.050000 2.249999
v -1.175940 0.050000 1.986627
v -1.252763 0.050000 1.733376
v -1.377517 0.050000 1.499979
v -1.545407 0.050000 1.295405
v -1.749982 0.050000 1.127515
v -1.983379 0.050000 1.002762
v -2.236630 0.050000 0.925939
v -2.500000 0.050000 -1.400000
v 1.150000 0.050000 2.249996
v 1.079866 0.050000 1.537917
v 0.872159 0.050000 0.853202
v 0.534862 0.050000 0.222165
v 0.080936 0.050000 -0.330943
v -0.472173 0.050000 -0.784867
v -1.103210 0.050000 -1.122162
v -1.787926 0.050000 -1.329867
vt 0.295666 0.769234
vt 0.317208 0.799924
vt 0.303508 0.804059
vt 0.315879 0.837315
vt 0.345163 0.859560
vt 0.333773 0.867868
vt 0.356967 0.894534
vt 0.392178 0.904490
vt 0.384673 0.916300
vt 0.415734 0.932455
vt 0.451898 0.929582
vt 0.448665 0.942873
vt 0.328627 0.831161
vt 0.366581 0.884279
vt 0.420978 0.919606
vt 0.484810 0.935337
vt 0.482286 0.949057
vt 0.310185 0.766142
vt 0.484810 0.761868
vt 0.322109 0.800713
vt 0.403013 0.812464
vt 0.400587 0.823086
vt 0.481145 0.836815
vt 0.562966 0.830552
vt 0.562947 0.841494
vt 0.644974 0.836962
vt 0.723678 0.812526
vt 0.726093 0.823216
vt 0.804876 0.800588
vt 0.875551 0.761342
vt 0.879411 0.771147
vt 0.248007 0.771366
vt 0.325640 0.790359
vt 0.482384 0.825971
vt 0.643763 0.826064
vt 0.801413 0.790312
vt 0.848659 0.926928
vt 0.943134 0.890439
vt 0.754442 0.953062
vt 0.561427 0.973463
vt 0.658346 0.968690
vt 0.464861 0.967332
vt 0.369767 0.950344
vt 0.276849 0.922546
vt 0.366314 0.965121
vt 0.561373 0.988658
vt 0.757772 0.967983
vt 0.271783 0.937030
vt 0.463100 0.982391
vt 0.659999 0.983840
vt 0.853511 0.941439
vt 0.178818 0.899192
vt 0.184812 0.884594
vt 0.619195 0.675988
vt 0.637448 0.643455
vt 0.647089 0.653096
vt 0.587370 0.692999
vt 0.611619 0.664651
vt 0.552839 0.703474
vt 0.582152 0.680402
vt 0.516928 0.707011
vt 0.550179 0.690101
vt 0.481016 0.703474
vt 0.516928 0.693376
vt 0.446485 0.692999
vt 0.483676 0.690101
vt 0.414660 0.675988
vt 0.451703 0.680402
vt 0.386766 0.653096
vt 0.422236 0.664651
vt 0.305229 0.484747
vt 0.609277 0.581841
vt 0.295666 0.581841
vt 0.623289 0.511398
vt 0.612814 0.545930
vt 0.333550 0.391385
vt 0.640300 0.479574
vt 0.379541 0.305341
vt 0.663192 0.451680
vt 0.516853 0.168029
vt 0.441435 0.229923
vt 0.722911 0.411777
vt 0.691086 0.428788
vt 0.696260 0.093717
vt 0.602897 0.122038
vt 0.793353 0.084154
vt 0.757442 0.401302
vt 0.239472 0.668238
vt 0.154413 0.633467
vt 0.164055 0.627051
vt 0.325516 0.698843
vt 0.231897 0.675782
vt 0.418880 0.717689
vt 0.320298 0.707226
vt 0.515974 0.724053
vt 0.416219 0.726588
vt 0.613068 0.717689
vt 0.515974 0.733126
vt 0.706430 0.698843
vt 0.615728 0.726588
vt 0.792473 0.668238
vt 0.711648 0.707225
vt 0.867890 0.627051
vt 0.800049 0.675782
vt 0.251954 0.761342
vt 0.948710 0.905007
vt 0.396408 0.643455
vt 0.793353 0.397765
vt 0.877532 0.633467
vn 0.0980 0.0000 -0.9952
vn 0.4714 0.0000 -0.8819
vn 0.7730 0.0000 -0.6344
vn 0.9569 0.0000 -0.2903
vn 0.2903 0.0000 -0.9569
vn 0.6344 0.0000 -0.7730
vn 0.8819 0.0000 -0.4714
vn 0.9952 0.0000 -0.0980
vn 0.0000 1.0000 0.0000
vn -0.2903 0.0000 0.9569
vn -0.6344 0.0000 0.7730
vn -0.8819 0.0000 0.4714
vn -0.9952 0.0000 0.0980
vn -0.0980 0.0000 0.9952
vn -0.4714 0.0000 0.8819
vn -0.7730 0.0000 0.6344
vn -0.9569 0.0000 0.2903
s off
f 1/1/1 18/2/1 9/3/1
f 8/4/2 16/5/2 7/6/2
f 6/7/3 14/8/3 5/9/3
f 4/10/4 12/11/4 3/12/4
f 9/3/5 17/13/5 8/4/5
f 7/6/6 15/14/6 6/7/6
f 5/9/7 13/15/7 4/10/7
f 3/12/8 11/16/8 2/17/8
f 18/2/9 10/18/9 19/19/9
f 17/13/9 18/2/9 19/19/9
f 16/5/9 17/13/9 19/19/9
f 15/14/9 16/5/9 19/19/9
f 14/8/9 15/14/9 19/19/9
f 13/15/9 14/8/9 19/19/9
f 12/11/9 13/15/9 19/19/9
f 11/16/9 12/11/9 19/19/9
f 37/20/10 22/21/10 36/22/10
f 35/23/11 24/24/11 34/25/11
f 33/26/12 26/27/12 32/28/12
f 31/29/13 28/30/13 30/31/13
f 20/32/14 21/33/14 37/20/14
f 36/22/15 23/34/15 35/23/15
f 34/25/16 25/35/16 33/26/16
f 32/28/17 27/36/17 31/29/17
f 49/37/9 30/31/9 48/38/9
f 50/39/9 31/29/9 49/37/9
f 50/39/9 33/26/9 32/28/9
f 52/40/9 33/26/9 51/41/9
f 53/42/9 34/25/9 52/40/9
f 54/43/9 35/23/9 53/42/9
f 55/44/9 36/22/9 54/43/9
f 55/44/9 20/32/9 37/20/9
f 53/42/2 40/45/2 54/43/2
f 51/41/3 42/46/3 52/40/3
f 49/37/4 44/47/4 50/39/4
f 54/43/5 39/48/5 55/44/5
f 52/40/6 41/49/6 53/42/6
f 50/39/7 43/50/7 51/41/7
f 48/38/8 45/51/8 49/37/8
f 55/44/1 47/52/1 38/53/1
f 58/54/9 2/55/9 57/56/9
f 59/57/9 3/58/9 58/54/9
f 60/59/9 4/60/9 59/57/9
f 61/61/9 5/62/9 60/59/9
f 62/63/9 6/64/9 61/61/9
f 63/65/9 7/66/9 62/63/9
f 64/67/9 8/68/9 63/65/9
f 56/69/9 9/70/9 64/67/9
f 67/71/9 57/72/9 66/73/9
f 67/71/9 59/74/9 58/75/9
f 68/76/9 60/77/9 59/74/9
f 69/78/9 61/79/9 60/77/9
f 71/80/9 61/79/9 70/81/9
f 71/80/9 63/82/9 62/83/9
f 73/84/9 63/82/9 72/85/9
f 65/86/9 64/87/9 73/84/9
f 73/88/9 29/89/9 65/90/9
f 72/91/9 21/92/9 73/88/9
f 71/93/9 22/94/9 72/91/9
f 70/95/9 23/96/9 71/93/9
f 69/97/9 24/98/9 70/95/9
f 68/99/9 25/100/9 69/97/9
f 67/101/9 26/102/9 68/99/9
f 66/103/9 27/104/9 67/101/9
f 1/1/1 10/18/1 18/2/1
f 8/4/2 17/13/2 16/5/2
f 6/7/3 15/14/3 14/8/3
f 4/10/4 13/15/4 12/11/4
f 9/3/5 18/2/5 17/13/5
f 7/6/6 16/5/6 15/14/6
f 5/9/7 14/8/7 13/15/7
f 3/12/8 12/11/8 11/16/8
f 37/20/10 21/33/10 22/21/10
f 35/23/11 23/34/11 24/24/11
f 33/26/12 25/35/12 26/27/12
f 31/29/13 27/36/13 28/30/13
f 20/32/14 29/105/14 21/33/14
f 36/22/15 22/21/15 23/34/15
f 34/25/16 24/24/16 25/35/16
f 32/28/17 26/27/17 27/36/17
f 49/37/9 31/29/9 30/31/9
f 50/39/9 32/28/9 31/29/9
f 50/39/9 51/41/9 33/26/9
f 52/40/9 34/25/9 33/26/9
f 53/42/9 35/23/9 34/25/9
f 54/43/9 36/22/9 35/23/9
f 55/44/9 37/20/9 36/22/9
f 55/44/9 38/53/9 20/32/9
f 53/42/2 41/49/2 40/45/2
f 51/41/3 43/50/3 42/46/3
f 49/37/4 45/51/4 44/47/4
f 54/43/5 40/45/5 39/48/5
f 52/40/6 42/46/6 41/49/6
f 50/39/7 44/47/7 43/50/7
f 48/38/8 46/106/8 45/51/8
f 55/44/1 39/48/1 47/52/1
f 58/54/9 3/58/9 2/55/9
f 59/57/9 4/60/9 3/58/9
f 60/59/9 5/62/9 4/60/9
f 61/61/9 6/64/9 5/62/9
f 62/63/9 7/66/9 6/64/9
f 63/65/9 8/68/9 7/66/9
f 64/67/9 9/70/9 8/68/9
f 56/69/9 1/107/9 9/70/9
f 67/71/9 58/75/9 57/72/9
f 67/71/9 68/76/9 59/74/9
f 68/76/9 69/78/9 60/77/9
f 69/78/9 70/81/9 61/79/9
f 71/80/9 62/83/9 61/79/9
f 71/80/9 72/85/9 63/82/9
f 73/84/9 64/87/9 63/82/9
f 65/86/9 56/108/9 64/87/9
f 73/88/9 21/92/9 29/89/9
f 72/91/9 22/94/9 21/92/9
f 71/93/9 23/96/9 22/94/9
f 70/95/9 24/98/9 23/96/9
f 69/97/9 25/100/9 24/98/9
f 68/99/9 26/102/9 25/100/9
f 67/101/9 27/104/9 26/102/9
f 66/103/9 28/109/9 27/104/9
